<svg version="1.1" id="Layer_1" xmlns="http://www.w3.org/2000/svg" xmlns:xlink="http://www.w3.org/1999/xlink" x="0px" y="0px" viewBox="0 371.5 934.5 255.509" aria-label="UpHomes Real Estate and Homes for Sale" title="UpHomes Real Estate and Homes for Sale" enable-background="new 0 371.5 934.5 255.509" xml:space="preserve" class="fill-current w-32 h-14 md:w-44 md:h-16">
	<g>
		<path fill="#3475E0" d="M108.911,587.598H81.883v-15c-3.766,4.707-8.469,8.369-14.118,11.025
		c-5.645,2.656-12.235,4.006-19.763,4.006c-13.987,0-25.046-4.34-33.18-13.045c-8.138-8.705-12.204-20.842-12.204-36.375v-68.605
		h27.631v65.52c0,8.902,2.05,15.965,6.152,21.143c4.1,5.178,10.456,7.764,19.061,7.764c7.531,0,13.783-2.688,18.758-8.066
		c4.975-5.377,7.464-13.109,7.464-23.193v-63.166h27.227V587.598L108.911,587.598z M190.196,587.629
		c-8.067,0-15.463-1.412-22.189-4.236c-6.722-2.824-12.168-6.861-16.337-12.104v54.734h-27.028v-156.42h27.028v17.482
		c4.169-5.314,9.583-9.551,16.237-12.742c6.659-3.192,14.019-4.772,22.085-4.772c7.397,0,14.589,1.31,21.583,3.966
		c6.994,2.652,13.177,6.486,18.554,11.529c5.378,5.042,9.719,11.23,13.01,18.523c3.295,7.291,4.943,15.662,4.943,25.107
		c0,9.313-1.68,17.617-5.043,24.91c-3.363,7.293-7.767,13.484-13.213,18.527c-5.441,5.033-11.628,8.871-18.554,11.527
		C204.346,586.313,197.321,587.629,190.196,587.629 M185.76,562.615c4.971,0,9.614-0.867,13.915-2.654
		c4.3-1.748,8.066-4.166,11.293-7.223c3.228-3.096,5.749-6.727,7.564-10.963c1.816-4.197,2.725-8.705,2.725-13.477
		c0-4.779-0.909-9.215-2.725-13.381c-1.815-4.133-4.336-7.73-7.564-10.723c-3.227-3.032-6.993-5.419-11.293-7.166
		c-4.301-1.778-8.944-2.652-13.915-2.652c-5.111,0-9.818,0.874-14.123,2.652c-4.3,1.747-7.998,4.174-11.09,7.23
		c-3.092,3.094-5.514,6.691-7.261,10.857c-1.751,4.133-2.621,8.537-2.621,13.182c0,4.77,0.87,9.238,2.621,13.412
		c1.747,4.133,4.169,7.764,7.261,10.924c3.092,3.127,6.79,5.576,11.09,7.324C175.942,561.746,180.649,562.615,185.76,562.615"></path>
	</g>
	<g>
		<path fill="#404040" d="M259.375,438.338h27.232v47.77c4.033-5.11,9.039-9.144,15.022-12.101c5.985-2.96,12.743-4.437,20.271-4.437
		c14.656,0,26.122,4.333,34.392,13.042c8.267,8.704,12.399,20.841,12.399,36.368v68.617h-27.834v-65.322
		c0-9.039-2.218-16.164-6.654-21.344c-4.437-5.178-11.095-7.763-19.967-7.763c-3.767,0-7.329,0.67-10.688,2.05
		c-3.362,1.381-6.287,3.391-8.775,6.016c-2.486,2.617-4.437,5.914-5.85,9.848c-1.412,3.934-2.117,8.369-2.117,13.35v63.166h-27.432
		V438.338z M438.72,587.645c-8.473,0-16.436-1.516-23.9-4.572c-7.464-3.021-13.95-7.229-19.464-12.572
		c-5.514-5.377-9.851-11.635-13.01-18.822c-3.159-7.164-4.738-14.824-4.738-22.963c0-8.268,1.579-15.998,4.738-23.162
		c3.159-7.189,7.496-13.444,13.01-18.822c5.514-5.346,12-9.547,19.464-12.571c7.465-3.059,15.428-4.571,23.9-4.571
		c8.47,0,16.404,1.513,23.801,4.571c7.389,3.024,13.883,7.226,19.469,12.571c5.567,5.378,9.94,11.633,13.101,18.822
		c3.159,7.164,4.739,14.895,4.739,23.162c0,8.139-1.58,15.799-4.739,22.963c-3.158,7.188-7.531,13.445-13.101,18.822
		c-5.586,5.346-12.08,9.551-19.469,12.572C455.124,586.129,447.189,587.645,438.72,587.645 M438.84,562.01
		c4.748,0,9.165-0.869,13.255-2.617c4.091-1.779,7.654-4.174,10.684-7.166c3.04-3.023,5.405-6.549,7.126-10.65
		c1.706-4.068,2.566-8.369,2.566-12.879c0-4.635-0.86-9.008-2.566-13.074c-1.721-4.104-4.086-7.629-7.126-10.652
		c-3.029-2.992-6.593-5.386-10.684-7.166c-4.09-1.747-8.507-2.621-13.255-2.621c-4.747,0-9.199,0.874-13.355,2.621
		c-4.152,1.78-7.717,4.174-10.684,7.166c-2.966,3.023-5.311,6.551-7.024,10.652c-1.714,4.066-2.571,8.439-2.571,13.074
		c0,4.51,0.857,8.811,2.571,12.879c1.714,4.102,4.059,7.627,7.024,10.65c2.967,2.992,6.531,5.387,10.684,7.166
		C429.641,561.141,434.093,562.01,438.84,562.01 M508.185,469.603h27.031v15.296c3.767-4.74,8.506-8.49,14.22-11.229
		c5.712-2.733,12.207-4.099,19.467-4.099c9.271,0,17.106,1.752,23.49,5.243c6.383,3.49,11.329,8.438,14.823,14.756
		c4.037-6.052,9.383-10.927,16.037-14.553c6.654-3.635,14.219-5.446,22.691-5.446c15.861,0,27.83,4.302,35.903,12.942
		c8.075,8.637,12.097,20.478,12.097,35.493v69.592h-27.829v-67.102c0-8.369-2.154-15.039-6.446-19.972
		c-4.293-4.916-10.692-7.355-19.166-7.355c-7.404,0-13.596,2.48-18.559,7.46c-4.979,5.002-7.469,12.551-7.469,22.619v64.35h-27.62
		v-67.875c0-8.266-2.107-14.754-6.256-19.461c-4.182-4.732-10.356-7.093-18.56-7.093c-7.66,0-14.01,2.553-19.053,7.659
		c-5.043,5.113-7.564,12.813-7.564,23.025v63.742h-27.238V469.603z M764.813,587.629c-9.287,0-17.761-1.531-25.42-4.572
		c-7.659-3.031-14.234-7.188-19.659-12.471c-5.458-5.297-9.688-11.568-12.718-18.727c-3.018-7.156-4.532-14.824-4.532-22.963
		c0-8.266,1.596-16.037,4.739-23.258c3.159-7.253,7.5-13.529,13.006-18.826c5.505-5.283,12-9.499,19.468-12.603
		c7.452-3.104,15.495-4.641,24.096-4.641c8.745,0,16.852,1.412,24.304,4.233c7.469,2.816,13.884,6.77,19.276,11.868
		c5.361,5.079,9.574,11.063,12.591,17.948c3.031,6.887,4.547,14.436,4.547,22.59v9.58h-96.016c1.883,8.34,6,15.064,12.303,20.172
		c6.319,5.104,14.33,7.668,24.017,7.668c7.659,0,14.313-1.885,19.963-5.65c5.648-3.766,9.879-8.807,12.703-15.127l22.389,12.91
		c-5.107,9.543-12.271,17.25-21.479,23.09C789.18,584.701,777.979,587.629,764.813,587.629 M763.792,493.57
		c-8.202,0-15.288,1.78-21.271,5.343c-5.983,3.565-10.182,8.274-12.606,14.091h66.957c-2.01-6.359-5.92-11.201-11.696-14.49
		C779.398,495.223,772.266,493.57,763.792,493.57 M880.984,587.629c-13.038,0-23.873-2.426-32.476-7.262
		c-8.601-4.834-15.254-11.832-19.964-20.975l25.214-11.164c2.825,5.076,6.654,8.979,11.49,11.697
		c4.835,2.721,10.484,4.102,16.947,4.102c6.717,0,11.76-1.355,15.127-4.029c3.352-2.664,5.043-5.848,5.043-9.582
		c0-2.02-0.782-3.701-2.33-4.979c-1.531-1.27-3.559-2.402-6.048-3.359c-2.474-0.949-5.409-1.756-8.776-2.387
		c-3.352-0.629-6.846-1.379-10.483-2.113c-5.09-1.037-10.117-2.227-15.032-3.639c-4.899-1.404-9.304-3.357-13.196-5.848
		c-3.91-2.49-7.068-5.684-9.479-9.576c-2.426-3.9-3.64-8.775-3.64-14.664c0-4.469,1.117-8.77,3.335-12.903
		c2.219-4.159,5.347-7.835,9.367-11.025c4.037-3.196,8.921-5.713,14.633-7.564c5.714-1.851,12.063-2.789,19.055-2.789
		c11.84,0,21.686,2.25,29.553,6.79c7.867,4.536,14.074,10.688,18.654,18.487l-23.202,10.792c-2.409-4.173-5.776-7.429-10.085-9.855
		c-4.293-2.416-9.271-3.626-14.92-3.626c-6.447,0-11.234,1.205-14.314,3.626c-3.096,2.442-4.644,5.25-4.644,8.443
		c0,3.734,2.282,6.375,6.861,7.963c4.563,1.596,11.281,3.344,20.171,5.082c4.817,0.941,9.718,2.1,14.616,3.561
		c4.898,1.459,9.384,3.438,13.42,5.92c4.021,2.48,7.293,5.713,9.781,9.582c2.49,3.885,3.719,8.801,3.719,14.688
		c0,3.967-0.94,8.074-2.823,12.367c-1.867,4.27-4.819,8.234-8.763,11.865c-3.973,3.652-8.982,6.613-15.03,8.912
		C896.717,586.463,889.457,587.629,880.984,587.629"></path>
	</g>
	<polygon fill="#3475E0" points="340.055,454.814 378.716,454.814 438.721,406.791 498.732,454.814 537.382,454.814 438.721,372.977 
	"></polygon>
</svg>