<svg xmlns="http://www.w3.org/2000/svg" width="295.171" height="80.594" viewBox="0 0 295.171 80.594">
  <g id="Group_14" data-name="Group 14" transform="translate(-2.618 -372.977)">
    <g id="Group_12" data-name="Group 12" transform="translate(2.618 403.742)">
      <path id="Path_16" data-name="Path 16" d="M36.472,507.162H27.864v-4.777a12.439,12.439,0,0,1-4.5,3.511,14.644,14.644,0,0,1-6.294,1.276q-6.682,0-10.568-4.155T2.618,491.432v-21.85h8.8v20.868a10.569,10.569,0,0,0,1.959,6.734q1.959,2.474,6.071,2.473a7.794,7.794,0,0,0,5.974-2.569Q27.8,494.518,27.8,489.7V469.582h8.672v37.58Zm25.889.01a18.076,18.076,0,0,1-7.067-1.349,12.873,12.873,0,0,1-5.2-3.855V519.4H41.482V469.581h8.608v5.568a14.3,14.3,0,0,1,5.171-4.058,16.057,16.057,0,0,1,7.034-1.52,19.2,19.2,0,0,1,6.874,1.263,17.736,17.736,0,0,1,5.909,3.672,18.293,18.293,0,0,1,4.144,5.9,19.234,19.234,0,0,1,1.574,8,18.743,18.743,0,0,1-1.606,7.934,18.483,18.483,0,0,1-4.208,5.9,18.24,18.24,0,0,1-5.909,3.671,18.625,18.625,0,0,1-6.713,1.264m-1.413-7.967a11.608,11.608,0,0,0,8.029-3.146,10.51,10.51,0,0,0,2.409-3.492,10.71,10.71,0,0,0,.868-4.292,10.522,10.522,0,0,0-.868-4.262,10.2,10.2,0,0,0-2.409-3.415,11.7,11.7,0,0,0-8.029-3.127,11.668,11.668,0,0,0-4.5.845,10.676,10.676,0,0,0-6.68,9.959,10.925,10.925,0,0,0,.835,4.272,11.111,11.111,0,0,0,2.313,3.479,10.43,10.43,0,0,0,3.532,2.333,11.6,11.6,0,0,0,4.5.847" transform="translate(-2.618 -469.571)" fill="#3475e0"/>
    </g>
    <g id="Group_13" data-name="Group 13" transform="translate(84.394 393.794)">
      <path id="Path_17" data-name="Path 17" d="M259.374,438.338h8.673v15.215a13.794,13.794,0,0,1,4.784-3.854,14.369,14.369,0,0,1,6.456-1.413q7,0,10.954,4.154t3.949,11.583v21.854h-8.865v-20.8a10.121,10.121,0,0,0-2.119-6.8q-2.12-2.474-6.359-2.473a8.865,8.865,0,0,0-3.4.653,8,8,0,0,0-2.795,1.916,8.815,8.815,0,0,0-1.863,3.137,12.514,12.514,0,0,0-.674,4.252v20.118h-8.737V438.338ZM316.5,485.892a19.886,19.886,0,0,1-7.612-1.456,19.123,19.123,0,0,1-6.2-4,18.913,18.913,0,0,1-4.144-5.995,18.631,18.631,0,0,1,0-14.691,18.91,18.91,0,0,1,4.144-5.995,19.122,19.122,0,0,1,6.2-4,19.87,19.87,0,0,1,7.612-1.456,19.8,19.8,0,0,1,13.781,5.46,18.733,18.733,0,0,1,4.173,5.995,18.627,18.627,0,0,1,0,14.691,18.7,18.7,0,0,1-4.173,5.995,19.8,19.8,0,0,1-13.781,5.46m.038-8.165a10.626,10.626,0,0,0,4.222-.834,11.086,11.086,0,0,0,3.4-2.282,10.38,10.38,0,0,0,2.27-3.392,10.51,10.51,0,0,0,.817-4.1,10.67,10.67,0,0,0-.817-4.164,10.373,10.373,0,0,0-2.27-3.393,11.087,11.087,0,0,0-3.4-2.282,10.632,10.632,0,0,0-4.222-.835,10.864,10.864,0,0,0-4.254.835,10.607,10.607,0,0,0-6.459,9.839,10.466,10.466,0,0,0,.819,4.1,10.347,10.347,0,0,0,5.64,5.674,10.857,10.857,0,0,0,4.254.834M338.62,448.3h8.609v4.872a12.715,12.715,0,0,1,4.529-3.576,14.2,14.2,0,0,1,6.2-1.306,15.417,15.417,0,0,1,7.481,1.67,11.73,11.73,0,0,1,4.721,4.7,14.215,14.215,0,0,1,5.108-4.635,14.827,14.827,0,0,1,7.227-1.735q7.577,0,11.435,4.122t3.853,11.3v22.165H388.92V464.505a9.363,9.363,0,0,0-2.053-6.361q-2.051-2.349-6.1-2.343a8.008,8.008,0,0,0-5.911,2.376q-2.379,2.39-2.379,7.2v20.5h-8.8V464.259a9.055,9.055,0,0,0-1.992-6.2,7.467,7.467,0,0,0-5.911-2.259,8.174,8.174,0,0,0-6.068,2.439c-1.606,1.628-2.409,4.081-2.409,7.333v20.3h-8.675V448.3Zm81.735,37.591a21.759,21.759,0,0,1-8.1-1.456A18.748,18.748,0,0,1,406,480.459a17.992,17.992,0,0,1-4.051-5.964,18.642,18.642,0,0,1-1.443-7.314,18.521,18.521,0,0,1,5.652-13.4,19.9,19.9,0,0,1,13.875-5.492,21.7,21.7,0,0,1,7.741,1.348,18.116,18.116,0,0,1,6.139,3.78,17.438,17.438,0,0,1,4.01,5.716,17.684,17.684,0,0,1,1.448,7.195v3.051H408.788a11.186,11.186,0,0,0,3.918,6.425,11.789,11.789,0,0,0,7.649,2.442,10.975,10.975,0,0,0,10.4-6.617l7.131,4.112a18.9,18.9,0,0,1-17.536,10.15m-.325-29.957a12.993,12.993,0,0,0-6.775,1.7,9.377,9.377,0,0,0-4.015,4.488h21.326a7.867,7.867,0,0,0-3.725-4.615,13.584,13.584,0,0,0-6.811-1.575m37.325,29.957a20.9,20.9,0,0,1-10.344-2.313,15.72,15.72,0,0,1-6.358-6.68l8.031-3.556a9.429,9.429,0,0,0,3.659,3.725,10.825,10.825,0,0,0,5.4,1.306,7.649,7.649,0,0,0,4.818-1.283,3.794,3.794,0,0,0,1.606-3.052,1.971,1.971,0,0,0-.742-1.586,6.884,6.884,0,0,0-1.926-1.07,16.193,16.193,0,0,0-2.8-.76c-1.068-.2-2.18-.439-3.339-.673-1.621-.33-3.222-.709-4.788-1.159a15.853,15.853,0,0,1-4.2-1.863,9.518,9.518,0,0,1-3.019-3.05,8.685,8.685,0,0,1-1.159-4.67,8.582,8.582,0,0,1,1.062-4.11,11.225,11.225,0,0,1,2.983-3.511,14.762,14.762,0,0,1,4.661-2.409,19.616,19.616,0,0,1,6.069-.888,18.6,18.6,0,0,1,9.413,2.163,16.087,16.087,0,0,1,5.941,5.888l-7.39,3.437a8.344,8.344,0,0,0-3.212-3.139,9.529,9.529,0,0,0-4.752-1.155,7.356,7.356,0,0,0-4.559,1.155,3.378,3.378,0,0,0-1.479,2.689c0,1.189.727,2.03,2.185,2.536a48.857,48.857,0,0,0,6.424,1.619c1.534.3,3.1.669,4.655,1.134a17.861,17.861,0,0,1,4.274,1.885,9.761,9.761,0,0,1,3.115,3.052,8.527,8.527,0,0,1,1.185,4.678,9.776,9.776,0,0,1-.9,3.939,11.373,11.373,0,0,1-2.791,3.779,14.689,14.689,0,0,1-4.787,2.838,19.566,19.566,0,0,1-6.937,1.1" transform="translate(-259.374 -438.338)" fill="#fff"/>
    </g>
    <path id="Path_18" data-name="Path 18" d="M340.055,399.042h12.313l19.111-15.3,19.113,15.3H402.9L371.48,372.977Z" transform="translate(-229.964)" fill="#3475e0"/>
  </g>
</svg>
